G04 Generated by Ultiboard 14.2 *
%FSLAX24Y24*%
%MOIN*%

%ADD10C,0.0001*%
%ADD11C,0.0100*%
%ADD12C,0.0669*%
%ADD13R,0.0669X0.0669*%
%ADD14C,0.0200*%


G04 ColorRGB 0000FF for the following layer *
%LNCopper Bottom*%
%LPD*%
G54D10*
G36*
X29849Y14849D02*
X29849Y14849D01*
X151Y14849D01*
X151Y151D01*
X29849Y151D01*
X29849Y14849D01*
D02*
G37*
%LPC*%
G36*
X1923Y9298D02*
G75*
D01*
G02X1923Y9298I484J-22*
G01*
D02*
G37*
G36*
X27160Y9298D02*
G75*
D01*
G02X27160Y9298I-435J-214*
G01*
D02*
G37*
G36*
X28259Y14000D02*
G75*
D01*
G02X28259Y14000I741J0*
G01*
D02*
G37*
G36*
X28259Y1000D02*
G75*
D01*
G02X28259Y1000I741J0*
G01*
D02*
G37*
G36*
X1922Y10261D02*
G75*
D01*
G02X1922Y10261I485J0*
G01*
D02*
G37*
G36*
X1922Y11245D02*
G75*
D01*
G02X1922Y11245I485J0*
G01*
D02*
G37*
G36*
X1922Y12229D02*
G75*
D01*
G02X1922Y12229I485J0*
G01*
D02*
G37*
G36*
X259Y14000D02*
G75*
D01*
G02X259Y14000I741J0*
G01*
D02*
G37*
G36*
X16196Y10326D02*
G74*
D01*
G02X16074Y10204I196J74*
G01*
X16074Y10204D01*
X16074Y10326D01*
X16196Y10326D01*
D02*
G37*
G36*
X15926Y10204D02*
G74*
D01*
G02X15804Y10326I74J196*
G01*
X15804Y10326D01*
X15926Y10326D01*
X15926Y10204D01*
D02*
G37*
G36*
X15804Y10474D02*
G74*
D01*
G02X15926Y10596I196J74*
G01*
X15926Y10596D01*
X15926Y10474D01*
X15804Y10474D01*
D02*
G37*
G36*
X16074Y10596D02*
G74*
D01*
G02X16196Y10474I74J196*
G01*
X16196Y10474D01*
X16074Y10474D01*
X16074Y10596D01*
D02*
G37*
G36*
X15950Y10400D02*
G75*
D01*
G02X15950Y10400I50J0*
G01*
D02*
G37*
G36*
X12604Y11374D02*
G74*
D01*
G02X12726Y11496I196J74*
G01*
X12726Y11496D01*
X12726Y11374D01*
X12604Y11374D01*
D02*
G37*
G36*
X12874Y11496D02*
G74*
D01*
G02X12996Y11374I74J196*
G01*
X12996Y11374D01*
X12874Y11374D01*
X12874Y11496D01*
D02*
G37*
G36*
X12996Y11226D02*
G74*
D01*
G02X12874Y11104I196J74*
G01*
X12874Y11104D01*
X12874Y11226D01*
X12996Y11226D01*
D02*
G37*
G36*
X12726Y11104D02*
G74*
D01*
G02X12604Y11226I74J196*
G01*
X12604Y11226D01*
X12726Y11226D01*
X12726Y11104D01*
D02*
G37*
G36*
X12750Y11300D02*
G75*
D01*
G02X12750Y11300I50J0*
G01*
D02*
G37*
G36*
X20404Y9774D02*
G74*
D01*
G02X20526Y9896I196J74*
G01*
X20526Y9896D01*
X20526Y9774D01*
X20404Y9774D01*
D02*
G37*
G36*
X20526Y9504D02*
G74*
D01*
G02X20404Y9626I74J196*
G01*
X20404Y9626D01*
X20526Y9626D01*
X20526Y9504D01*
D02*
G37*
G36*
X20674Y9896D02*
G74*
D01*
G02X20796Y9774I74J196*
G01*
X20796Y9774D01*
X20674Y9774D01*
X20674Y9896D01*
D02*
G37*
G36*
X20796Y9626D02*
G74*
D01*
G02X20674Y9504I196J74*
G01*
X20674Y9504D01*
X20674Y9626D01*
X20796Y9626D01*
D02*
G37*
G36*
X20550Y9700D02*
G75*
D01*
G02X20550Y9700I50J0*
G01*
D02*
G37*
G36*
X26241Y10069D02*
G75*
D01*
G02X26241Y10069I484J0*
G01*
D02*
G37*
G36*
X26241Y11053D02*
G75*
D01*
G02X26241Y11053I484J0*
G01*
D02*
G37*
G36*
X26240Y12372D02*
G75*
D01*
G02X26391Y12522I151J0*
G01*
X26391Y12522D01*
X27060Y12522D01*
G74*
D01*
G02X27211Y12372I0J150*
G01*
X27211Y12372D01*
X27211Y11702D01*
G75*
D01*
G02X27060Y11552I-151J0*
G01*
X27060Y11552D01*
X26391Y11552D01*
G75*
D01*
G02X26240Y11702I0J150*
G01*
X26240Y11702D01*
X26240Y12372D01*
D02*
G37*
G36*
X22008Y12185D02*
G75*
D01*
G02X22008Y12185I50J0*
G01*
D02*
G37*
G36*
X21861Y12259D02*
G74*
D01*
G02X21983Y12381I197J74*
G01*
X21983Y12381D01*
X21983Y12259D01*
X21861Y12259D01*
D02*
G37*
G36*
X21983Y11988D02*
G74*
D01*
G02X21861Y12110I75J197*
G01*
X21861Y12110D01*
X21983Y12110D01*
X21983Y11988D01*
D02*
G37*
G36*
X22132Y12381D02*
G74*
D01*
G02X22254Y12259I74J196*
G01*
X22254Y12259D01*
X22132Y12259D01*
X22132Y12381D01*
D02*
G37*
G36*
X22254Y12110D02*
G74*
D01*
G02X22132Y11988I196J75*
G01*
X22132Y11988D01*
X22132Y12110D01*
X22254Y12110D01*
D02*
G37*
G36*
X259Y1000D02*
G75*
D01*
G02X259Y1000I741J0*
G01*
D02*
G37*
G36*
X2892Y3036D02*
G75*
D01*
G02X2741Y2885I-151J0*
G01*
X2741Y2885D01*
X2072Y2885D01*
G75*
D01*
G02X1921Y3036I0J151*
G01*
X1921Y3036D01*
X1921Y3706D01*
G75*
D01*
G02X2072Y3856I151J0*
G01*
X2072Y3856D01*
X2741Y3856D01*
G74*
D01*
G02X2892Y3706I0J150*
G01*
X2892Y3706D01*
X2892Y3036D01*
D02*
G37*
G36*
X1922Y4355D02*
G75*
D01*
G02X1922Y4355I485J0*
G01*
D02*
G37*
G36*
X1922Y5339D02*
G75*
D01*
G02X1922Y5339I485J0*
G01*
D02*
G37*
G36*
X1922Y6324D02*
G75*
D01*
G02X1922Y6324I485J0*
G01*
D02*
G37*
G36*
X1922Y7308D02*
G75*
D01*
G02X1922Y7308I485J0*
G01*
D02*
G37*
G36*
X1922Y8292D02*
G75*
D01*
G02X1922Y8292I485J0*
G01*
D02*
G37*
G36*
X21226Y3104D02*
G74*
D01*
G02X21104Y3226I74J196*
G01*
X21104Y3226D01*
X21226Y3226D01*
X21226Y3104D01*
D02*
G37*
G36*
X21496Y3226D02*
G74*
D01*
G02X21374Y3104I196J74*
G01*
X21374Y3104D01*
X21374Y3226D01*
X21496Y3226D01*
D02*
G37*
G36*
X21250Y3300D02*
G75*
D01*
G02X21250Y3300I50J0*
G01*
D02*
G37*
G36*
X21104Y3374D02*
G74*
D01*
G02X21226Y3496I196J74*
G01*
X21226Y3496D01*
X21226Y3374D01*
X21104Y3374D01*
D02*
G37*
G36*
X21374Y3496D02*
G74*
D01*
G02X21496Y3374I74J196*
G01*
X21496Y3374D01*
X21374Y3374D01*
X21374Y3496D01*
D02*
G37*
G36*
X26553Y3710D02*
G74*
D01*
G02X26272Y3991I172J453*
G01*
X26272Y3991D01*
X26553Y3991D01*
X26553Y3710D01*
D02*
G37*
G36*
X27178Y3991D02*
G74*
D01*
G02X26897Y3710I453J172*
G01*
X26897Y3710D01*
X26897Y3991D01*
X27178Y3991D01*
D02*
G37*
G36*
X18926Y4604D02*
G74*
D01*
G02X18804Y4726I74J196*
G01*
X18804Y4726D01*
X18926Y4726D01*
X18926Y4604D01*
D02*
G37*
G36*
X19196Y4726D02*
G74*
D01*
G02X19074Y4604I196J74*
G01*
X19074Y4604D01*
X19074Y4726D01*
X19196Y4726D01*
D02*
G37*
G36*
X26528Y4163D02*
G75*
D01*
G02X26528Y4163I197J0*
G01*
D02*
G37*
G36*
X26241Y5147D02*
G75*
D01*
G02X26241Y5147I484J0*
G01*
D02*
G37*
G36*
X26272Y4335D02*
G74*
D01*
G02X26553Y4616I453J172*
G01*
X26553Y4616D01*
X26553Y4335D01*
X26272Y4335D01*
D02*
G37*
G36*
X26897Y4616D02*
G74*
D01*
G02X27178Y4335I172J453*
G01*
X27178Y4335D01*
X26897Y4335D01*
X26897Y4616D01*
D02*
G37*
G36*
X18804Y4874D02*
G74*
D01*
G02X18926Y4996I196J74*
G01*
X18926Y4996D01*
X18926Y4874D01*
X18804Y4874D01*
D02*
G37*
G36*
X19074Y4996D02*
G74*
D01*
G02X19196Y4874I74J196*
G01*
X19196Y4874D01*
X19074Y4874D01*
X19074Y4996D01*
D02*
G37*
G36*
X18950Y4800D02*
G75*
D01*
G02X18950Y4800I50J0*
G01*
D02*
G37*
G36*
X23574Y5296D02*
G74*
D01*
G02X23696Y5174I74J196*
G01*
X23696Y5174D01*
X23574Y5174D01*
X23574Y5296D01*
D02*
G37*
G36*
X23696Y5026D02*
G74*
D01*
G02X23574Y4904I196J74*
G01*
X23574Y4904D01*
X23574Y5026D01*
X23696Y5026D01*
D02*
G37*
G36*
X23304Y5174D02*
G74*
D01*
G02X23426Y5296I196J74*
G01*
X23426Y5296D01*
X23426Y5174D01*
X23304Y5174D01*
D02*
G37*
G36*
X23426Y4904D02*
G74*
D01*
G02X23304Y5026I74J196*
G01*
X23304Y5026D01*
X23426Y5026D01*
X23426Y4904D01*
D02*
G37*
G36*
X23450Y5100D02*
G75*
D01*
G02X23450Y5100I50J0*
G01*
D02*
G37*
G36*
X26241Y6131D02*
G75*
D01*
G02X26241Y6131I484J0*
G01*
D02*
G37*
G36*
X26241Y7116D02*
G75*
D01*
G02X26241Y7116I484J0*
G01*
D02*
G37*
G36*
X22896Y7926D02*
G74*
D01*
G02X22774Y7804I196J74*
G01*
X22774Y7804D01*
X22774Y7926D01*
X22896Y7926D01*
D02*
G37*
G36*
X22626Y7804D02*
G74*
D01*
G02X22504Y7926I74J196*
G01*
X22504Y7926D01*
X22626Y7926D01*
X22626Y7804D01*
D02*
G37*
G36*
X26241Y8100D02*
G75*
D01*
G02X26241Y8100I484J0*
G01*
D02*
G37*
G36*
X22774Y8196D02*
G74*
D01*
G02X22896Y8074I74J196*
G01*
X22896Y8074D01*
X22774Y8074D01*
X22774Y8196D01*
D02*
G37*
G36*
X22504Y8074D02*
G74*
D01*
G02X22626Y8196I196J74*
G01*
X22626Y8196D01*
X22626Y8074D01*
X22504Y8074D01*
D02*
G37*
G36*
X22650Y8000D02*
G75*
D01*
G02X22650Y8000I50J0*
G01*
D02*
G37*
G36*
X16950Y6200D02*
G75*
D01*
G02X16950Y6200I50J0*
G01*
D02*
G37*
G36*
X11404Y4274D02*
G74*
D01*
G02X11526Y4396I196J74*
G01*
X11526Y4396D01*
X11526Y4274D01*
X11404Y4274D01*
D02*
G37*
G36*
X11674Y4396D02*
G74*
D01*
G02X11796Y4274I74J196*
G01*
X11796Y4274D01*
X11674Y4274D01*
X11674Y4396D01*
D02*
G37*
G36*
X11796Y4126D02*
G74*
D01*
G02X11674Y4004I196J74*
G01*
X11674Y4004D01*
X11674Y4126D01*
X11796Y4126D01*
D02*
G37*
G36*
X11526Y4004D02*
G74*
D01*
G02X11404Y4126I74J196*
G01*
X11404Y4126D01*
X11526Y4126D01*
X11526Y4004D01*
D02*
G37*
G36*
X11550Y4200D02*
G75*
D01*
G02X11550Y4200I50J0*
G01*
D02*
G37*
G36*
X15004Y6274D02*
G74*
D01*
G02X15126Y6396I196J74*
G01*
X15126Y6396D01*
X15126Y6274D01*
X15004Y6274D01*
D02*
G37*
G36*
X15274Y6396D02*
G74*
D01*
G02X15396Y6274I74J196*
G01*
X15396Y6274D01*
X15274Y6274D01*
X15274Y6396D01*
D02*
G37*
G36*
X15396Y6126D02*
G74*
D01*
G02X15274Y6004I196J74*
G01*
X15274Y6004D01*
X15274Y6126D01*
X15396Y6126D01*
D02*
G37*
G36*
X15126Y6004D02*
G74*
D01*
G02X15004Y6126I74J196*
G01*
X15004Y6126D01*
X15126Y6126D01*
X15126Y6004D01*
D02*
G37*
G36*
X15150Y6200D02*
G75*
D01*
G02X15150Y6200I50J0*
G01*
D02*
G37*
G36*
X16804Y6274D02*
G74*
D01*
G02X16926Y6396I196J74*
G01*
X16926Y6396D01*
X16926Y6274D01*
X16804Y6274D01*
D02*
G37*
G36*
X17074Y6396D02*
G74*
D01*
G02X17196Y6274I74J196*
G01*
X17196Y6274D01*
X17074Y6274D01*
X17074Y6396D01*
D02*
G37*
G36*
X17196Y6126D02*
G74*
D01*
G02X17074Y6004I196J74*
G01*
X17074Y6004D01*
X17074Y6126D01*
X17196Y6126D01*
D02*
G37*
G36*
X16926Y6004D02*
G74*
D01*
G02X16804Y6126I74J196*
G01*
X16804Y6126D01*
X16926Y6126D01*
X16926Y6004D01*
D02*
G37*
%LPD*%
G54D11*
X1923Y9298D02*
G75*
D01*
G02X1923Y9298I484J-22*
G01*
X27160Y9298D02*
G75*
D01*
G02X27160Y9298I-435J-214*
G01*
X28259Y14000D02*
G75*
D01*
G02X28259Y14000I741J0*
G01*
X28259Y1000D02*
G75*
D01*
G02X28259Y1000I741J0*
G01*
X1922Y10261D02*
G75*
D01*
G02X1922Y10261I485J0*
G01*
X1922Y11245D02*
G75*
D01*
G02X1922Y11245I485J0*
G01*
X1922Y12229D02*
G75*
D01*
G02X1922Y12229I485J0*
G01*
X259Y14000D02*
G75*
D01*
G02X259Y14000I741J0*
G01*
X16196Y10326D02*
G74*
D01*
G02X16074Y10204I196J74*
G01*
X16074Y10326D01*
X16196Y10326D01*
X15926Y10204D02*
G74*
D01*
G02X15804Y10326I74J196*
G01*
X15926Y10326D01*
X15926Y10204D01*
X15804Y10474D02*
G74*
D01*
G02X15926Y10596I196J74*
G01*
X15926Y10474D01*
X15804Y10474D01*
X16074Y10596D02*
G74*
D01*
G02X16196Y10474I74J196*
G01*
X16074Y10474D01*
X16074Y10596D01*
X15950Y10400D02*
G75*
D01*
G02X15950Y10400I50J0*
G01*
X12604Y11374D02*
G74*
D01*
G02X12726Y11496I196J74*
G01*
X12726Y11374D01*
X12604Y11374D01*
X12874Y11496D02*
G74*
D01*
G02X12996Y11374I74J196*
G01*
X12874Y11374D01*
X12874Y11496D01*
X12996Y11226D02*
G74*
D01*
G02X12874Y11104I196J74*
G01*
X12874Y11226D01*
X12996Y11226D01*
X12726Y11104D02*
G74*
D01*
G02X12604Y11226I74J196*
G01*
X12726Y11226D01*
X12726Y11104D01*
X12750Y11300D02*
G75*
D01*
G02X12750Y11300I50J0*
G01*
X20404Y9774D02*
G74*
D01*
G02X20526Y9896I196J74*
G01*
X20526Y9774D01*
X20404Y9774D01*
X20526Y9504D02*
G74*
D01*
G02X20404Y9626I74J196*
G01*
X20526Y9626D01*
X20526Y9504D01*
X20674Y9896D02*
G74*
D01*
G02X20796Y9774I74J196*
G01*
X20674Y9774D01*
X20674Y9896D01*
X20796Y9626D02*
G74*
D01*
G02X20674Y9504I196J74*
G01*
X20674Y9626D01*
X20796Y9626D01*
X20550Y9700D02*
G75*
D01*
G02X20550Y9700I50J0*
G01*
X26241Y10069D02*
G75*
D01*
G02X26241Y10069I484J0*
G01*
X26241Y11053D02*
G75*
D01*
G02X26241Y11053I484J0*
G01*
X26240Y12372D02*
G75*
D01*
G02X26391Y12522I151J0*
G01*
X27060Y12522D01*
G74*
D01*
G02X27211Y12372I0J150*
G01*
X27211Y11702D01*
G75*
D01*
G02X27060Y11552I-151J0*
G01*
X26391Y11552D01*
G75*
D01*
G02X26240Y11702I0J150*
G01*
X26240Y12372D01*
X22008Y12185D02*
G75*
D01*
G02X22008Y12185I50J0*
G01*
X21861Y12259D02*
G74*
D01*
G02X21983Y12381I197J74*
G01*
X21983Y12259D01*
X21861Y12259D01*
X21983Y11988D02*
G74*
D01*
G02X21861Y12110I75J197*
G01*
X21983Y12110D01*
X21983Y11988D01*
X22132Y12381D02*
G74*
D01*
G02X22254Y12259I74J196*
G01*
X22132Y12259D01*
X22132Y12381D01*
X22254Y12110D02*
G74*
D01*
G02X22132Y11988I196J75*
G01*
X22132Y12110D01*
X22254Y12110D01*
X259Y1000D02*
G75*
D01*
G02X259Y1000I741J0*
G01*
X2892Y3036D02*
G75*
D01*
G02X2741Y2885I-151J0*
G01*
X2072Y2885D01*
G75*
D01*
G02X1921Y3036I0J151*
G01*
X1921Y3706D01*
G75*
D01*
G02X2072Y3856I151J0*
G01*
X2741Y3856D01*
G74*
D01*
G02X2892Y3706I0J150*
G01*
X2892Y3036D01*
X1922Y4355D02*
G75*
D01*
G02X1922Y4355I485J0*
G01*
X1922Y5339D02*
G75*
D01*
G02X1922Y5339I485J0*
G01*
X1922Y6324D02*
G75*
D01*
G02X1922Y6324I485J0*
G01*
X1922Y7308D02*
G75*
D01*
G02X1922Y7308I485J0*
G01*
X1922Y8292D02*
G75*
D01*
G02X1922Y8292I485J0*
G01*
X21226Y3104D02*
G74*
D01*
G02X21104Y3226I74J196*
G01*
X21226Y3226D01*
X21226Y3104D01*
X21496Y3226D02*
G74*
D01*
G02X21374Y3104I196J74*
G01*
X21374Y3226D01*
X21496Y3226D01*
X21250Y3300D02*
G75*
D01*
G02X21250Y3300I50J0*
G01*
X21104Y3374D02*
G74*
D01*
G02X21226Y3496I196J74*
G01*
X21226Y3374D01*
X21104Y3374D01*
X21374Y3496D02*
G74*
D01*
G02X21496Y3374I74J196*
G01*
X21374Y3374D01*
X21374Y3496D01*
X26553Y3710D02*
G74*
D01*
G02X26272Y3991I172J453*
G01*
X26553Y3991D01*
X26553Y3710D01*
X27178Y3991D02*
G74*
D01*
G02X26897Y3710I453J172*
G01*
X26897Y3991D01*
X27178Y3991D01*
X18926Y4604D02*
G74*
D01*
G02X18804Y4726I74J196*
G01*
X18926Y4726D01*
X18926Y4604D01*
X19196Y4726D02*
G74*
D01*
G02X19074Y4604I196J74*
G01*
X19074Y4726D01*
X19196Y4726D01*
X26528Y4163D02*
G75*
D01*
G02X26528Y4163I197J0*
G01*
X26241Y5147D02*
G75*
D01*
G02X26241Y5147I484J0*
G01*
X26272Y4335D02*
G74*
D01*
G02X26553Y4616I453J172*
G01*
X26553Y4335D01*
X26272Y4335D01*
X26897Y4616D02*
G74*
D01*
G02X27178Y4335I172J453*
G01*
X26897Y4335D01*
X26897Y4616D01*
X18804Y4874D02*
G74*
D01*
G02X18926Y4996I196J74*
G01*
X18926Y4874D01*
X18804Y4874D01*
X19074Y4996D02*
G74*
D01*
G02X19196Y4874I74J196*
G01*
X19074Y4874D01*
X19074Y4996D01*
X18950Y4800D02*
G75*
D01*
G02X18950Y4800I50J0*
G01*
X23574Y5296D02*
G74*
D01*
G02X23696Y5174I74J196*
G01*
X23574Y5174D01*
X23574Y5296D01*
X23696Y5026D02*
G74*
D01*
G02X23574Y4904I196J74*
G01*
X23574Y5026D01*
X23696Y5026D01*
X23304Y5174D02*
G74*
D01*
G02X23426Y5296I196J74*
G01*
X23426Y5174D01*
X23304Y5174D01*
X23426Y4904D02*
G74*
D01*
G02X23304Y5026I74J196*
G01*
X23426Y5026D01*
X23426Y4904D01*
X23450Y5100D02*
G75*
D01*
G02X23450Y5100I50J0*
G01*
X26241Y6131D02*
G75*
D01*
G02X26241Y6131I484J0*
G01*
X26241Y7116D02*
G75*
D01*
G02X26241Y7116I484J0*
G01*
X22896Y7926D02*
G74*
D01*
G02X22774Y7804I196J74*
G01*
X22774Y7926D01*
X22896Y7926D01*
X22626Y7804D02*
G74*
D01*
G02X22504Y7926I74J196*
G01*
X22626Y7926D01*
X22626Y7804D01*
X26241Y8100D02*
G75*
D01*
G02X26241Y8100I484J0*
G01*
X22774Y8196D02*
G74*
D01*
G02X22896Y8074I74J196*
G01*
X22774Y8074D01*
X22774Y8196D01*
X22504Y8074D02*
G74*
D01*
G02X22626Y8196I196J74*
G01*
X22626Y8074D01*
X22504Y8074D01*
X22650Y8000D02*
G75*
D01*
G02X22650Y8000I50J0*
G01*
X16950Y6200D02*
G75*
D01*
G02X16950Y6200I50J0*
G01*
X11404Y4274D02*
G74*
D01*
G02X11526Y4396I196J74*
G01*
X11526Y4274D01*
X11404Y4274D01*
X11674Y4396D02*
G74*
D01*
G02X11796Y4274I74J196*
G01*
X11674Y4274D01*
X11674Y4396D01*
X11796Y4126D02*
G74*
D01*
G02X11674Y4004I196J74*
G01*
X11674Y4126D01*
X11796Y4126D01*
X11526Y4004D02*
G74*
D01*
G02X11404Y4126I74J196*
G01*
X11526Y4126D01*
X11526Y4004D01*
X11550Y4200D02*
G75*
D01*
G02X11550Y4200I50J0*
G01*
X15004Y6274D02*
G74*
D01*
G02X15126Y6396I196J74*
G01*
X15126Y6274D01*
X15004Y6274D01*
X15274Y6396D02*
G74*
D01*
G02X15396Y6274I74J196*
G01*
X15274Y6274D01*
X15274Y6396D01*
X15396Y6126D02*
G74*
D01*
G02X15274Y6004I196J74*
G01*
X15274Y6126D01*
X15396Y6126D01*
X15126Y6004D02*
G74*
D01*
G02X15004Y6126I74J196*
G01*
X15126Y6126D01*
X15126Y6004D01*
X15150Y6200D02*
G75*
D01*
G02X15150Y6200I50J0*
G01*
X16804Y6274D02*
G74*
D01*
G02X16926Y6396I196J74*
G01*
X16926Y6274D01*
X16804Y6274D01*
X17074Y6396D02*
G74*
D01*
G02X17196Y6274I74J196*
G01*
X17074Y6274D01*
X17074Y6396D01*
X17196Y6126D02*
G74*
D01*
G02X17074Y6004I196J74*
G01*
X17074Y6126D01*
X17196Y6126D01*
X16926Y6004D02*
G74*
D01*
G02X16804Y6126I74J196*
G01*
X16926Y6126D01*
X16926Y6004D01*
X29849Y14849D02*
X151Y14849D01*
X151Y151D01*
X29849Y151D01*
X29849Y14849D01*
G54D12*
X2407Y4355D03*
X2407Y5339D03*
X2407Y6324D03*
X2407Y7308D03*
X2407Y8292D03*
X2407Y9276D03*
X2407Y10261D03*
X2407Y11245D03*
X2407Y12229D03*
X26725Y11053D03*
X26725Y10069D03*
X26725Y9084D03*
X26725Y8100D03*
X26725Y7116D03*
X26725Y6131D03*
X26725Y5147D03*
X26725Y4163D03*
G54D13*
X2407Y3371D03*
X26725Y12037D03*
G54D14*
X20600Y9700D03*
X23500Y5100D03*
X11600Y4200D03*
X22700Y8000D03*
X17000Y6200D03*
X16000Y10400D03*
X15200Y6200D03*
X22058Y12185D03*
X21300Y3300D03*
X19000Y4800D03*
X12800Y11300D03*

M02*
