M48
INCH,TZ
VER,1
FMAT,2
DETECT,ON
ATC,ON
T1C0.0394
T2C0.0100
T3C0.1181
%
T1
X2407Y4355
Y5339
Y6324
Y7308
Y8292
Y9276
Y10261
Y11245
Y12229
Y3371
X26725Y11053
Y10069
Y9084
Y8100
Y7116
Y6131
Y5147
Y4163
Y12037
T2
X20600Y9700
X23500Y5100
X11600Y4200
X22700Y8000
X17000Y6200
X16000Y10400
X15200Y6200
X22058Y12185
X21300Y3300
X19000Y4800
X12800Y11300
T3
X29000Y14000
Y1000
X1000
Y14000
M30
